<svg width="26" height="9" viewBox="0 0 26 9" fill="none" xmlns="http://www.w3.org/2000/svg">
<g clip-path="url(#clip0_39_113)">
<path d="M3.71547e-07 4.30005C3.62805e-07 4.40005 3.4532e-07 4.60005 3.36578e-07 4.70005C3.27835e-07 4.80005 0.100001 4.80005 0.100001 4.90005L3.6 8.40005C3.8 8.60005 4.1 8.60005 4.3 8.40005C4.5 8.20005 4.5 7.90005 4.3 7.70005L1.7 5.00005L25.5 5.00005C25.8 5.00005 26 4.80005 26 4.50005C26 4.20005 25.8 4.00005 25.5 4.00005L1.7 4.00005L4.4 1.30005C4.6 1.10005 4.6 0.800047 4.4 0.600047C4.3 0.500047 4.2 0.500047 4 0.500047C3.8 0.500047 3.7 0.500047 3.6 0.600047L0.100001 4.10005C0.100001 4.20005 0.1 4.20005 3.71547e-07 4.30005Z" fill="white"/>
</g>
<defs>
<clipPath id="clip0_39_113">
<rect width="26" height="9" fill="white" transform="translate(26 9) rotate(-180)"/>
</clipPath>
</defs>
</svg>
