<svg width="26" height="9" viewBox="0 0 26 9" fill="none" xmlns="http://www.w3.org/2000/svg">
<g clip-path="url(#clip0_39_111)">
<path d="M26 4.69995C26 4.59995 26 4.39995 26 4.29995C26 4.19995 25.9 4.19995 25.9 4.09995L22.4 0.599951C22.2 0.399951 21.9 0.399951 21.7 0.599951C21.5 0.799951 21.5 1.09995 21.7 1.29995L24.3 3.99995H0.5C0.2 3.99995 0 4.19995 0 4.49995C0 4.79995 0.2 4.99995 0.5 4.99995H24.3L21.6 7.69995C21.4 7.89995 21.4 8.19995 21.6 8.39995C21.7 8.49995 21.8 8.49995 22 8.49995C22.2 8.49995 22.3 8.49995 22.4 8.39995L25.9 4.89995C25.9 4.79995 25.9 4.79995 26 4.69995Z" fill="white"/>
</g>
<defs>
<clipPath id="clip0_39_111">
<rect width="26" height="9" fill="white"/>
</clipPath>
</defs>
</svg>
