<?xml version="1.0" encoding="utf-8"?>
<!-- Generator: Adobe Illustrator 28.0.0, SVG Export Plug-In . SVG Version: 6.00 Build 0)  -->
<svg version="1.1" id="Слой_1" xmlns="http://www.w3.org/2000/svg" xmlns:xlink="http://www.w3.org/1999/xlink" x="0px" y="0px"
	 viewBox="0 0 221 48" style="enable-background:new 0 0 221 48;" xml:space="preserve">
<style type="text/css">
	.st0{display:none;fill:#1D1D1B;}
	.st1{fill:#FEFDFE;}
	.st2{font-family:'PTSans-Caption';}
	.st3{font-size:31.6459px;}
	.st4{display:none;}
	.st5{display:inline;}
	.st6{display:inline;clip-path:url(#SVGID_00000018924405097310625510000002692420056971190687_);}
	.st7{fill:#FFFFFF;}
	.st8{fill-rule:evenodd;clip-rule:evenodd;fill:#FFFFFF;}
</style>
<rect class="st0" width="221" height="48"/>
<text transform="matrix(1 0 0 1 2.0072 36.2873)" class="st1 st2 st3">БЕРЕГ ЖИЗНИ</text>
<g class="st4">
	<defs>
		<rect id="SVGID_1_" width="220.5" height="48"/>
	</defs>
	<clipPath id="SVGID_00000075841717464290682090000015723050384140808089_" class="st5">
		<use xlink:href="#SVGID_1_"  style="overflow:visible;"/>
	</clipPath>
	<g style="display:inline;clip-path:url(#SVGID_00000075841717464290682090000015723050384140808089_);">
		<path class="st7" d="M43.8,22.7c0-2.6,0.9-4.9,2.9-6.7c2-1.9,4.3-2.8,7.1-2.7c3.4,0,6,1.4,7.9,4.1l-3.3,2.8
			c-1.2-1.7-2.7-2.5-4.6-2.5c-1.5,0-2.8,0.5-3.6,1.4c-0.9,0.9-1.3,2.2-1.3,3.7c0,1.6,0.5,2.8,1.4,3.8c1,1,2.2,1.4,3.8,1.4
			c1.7,0,3.1-0.5,4-1.6v-0.9h-4.3v-4.1h9v5.8c-0.9,1.5-2.1,2.7-3.7,3.7c-1.6,0.9-3.4,1.4-5.3,1.4c-2.8,0-5.1-0.9-7.1-2.7
			C44.7,27.6,43.7,25.3,43.8,22.7z"/>
		<path class="st7" d="M81.7,31.8h-5.3l-4.1-5.7h-2v5.7h-4.8V13.5h7.2c2.1,0,3.7,0.6,5.1,1.7c1.3,1.2,2,2.7,2,4.6c0,2.3-1,4-2.9,5.2
			L81.7,31.8z M70.2,17.7V22h2.4c0.7,0,1.2-0.2,1.6-0.6c0.4-0.4,0.6-0.9,0.6-1.6c0-0.6-0.2-1.2-0.6-1.6c-0.4-0.4-0.9-0.6-1.6-0.6
			H70.2z"/>
		<path class="st7" d="M83.5,31.8V13.5h12.7v4.3h-7.9v2.5H94v4h-5.7v3.2h8.3v4.3H83.5z"/>
		<path class="st7" d="M99.5,31.8V13.5h12.7v4.3h-7.9v2.5h5.7v4h-5.7v3.2h8.3v4.3H99.5z"/>
		<path class="st7" d="M127,13.5h4.8v18.6h-1.5l-9.9-9.6v9.3h-4.8V13.2h1.5l9.9,9.5V13.5z"/>
		<path class="st7" d="M159.4,31.8h-5.3l-4.1-5.7h-2v5.7h-4.8V13.5h7.2c2.1,0,3.7,0.6,5.1,1.7c1.3,1.2,2,2.7,2,4.6
			c0,2.3-1,4-2.9,5.2L159.4,31.8z M148,17.7V22h2.4c0.7,0,1.2-0.2,1.6-0.6c0.4-0.4,0.6-0.9,0.6-1.6c0-0.6-0.2-1.2-0.6-1.6
			c-0.4-0.4-0.9-0.6-1.6-0.6H148z"/>
		<path class="st7" d="M166.1,13.5h-4.8v18.3h4.8V13.5z"/>
		<path class="st7" d="M180.7,13.5h5.4l-8.3,18.6h-1.5L168,13.5h5.4l3.7,9L180.7,13.5z"/>
		<path class="st7" d="M188,31.8V13.5h12.7v4.3h-7.9v2.5h5.7v4h-5.7v3.2h8.3v4.3H188z"/>
		<path class="st7" d="M220.2,31.8h-5.3l-4.1-5.7h-2v5.7H204V13.5h7.2c2.1,0,3.7,0.6,5.1,1.7c1.3,1.2,2,2.7,2,4.6c0,2.3-1,4-2.9,5.2
			L220.2,31.8z M208.8,17.7V22h2.4c0.7,0,1.2-0.2,1.6-0.6c0.4-0.4,0.6-0.9,0.6-1.6c0-0.6-0.2-1.2-0.6-1.6c-0.4-0.4-0.9-0.6-1.6-0.6
			H208.8z"/>
		<path class="st7" d="M94.2,46.8v-5.4h0.9v5.4H94.2z M96.2,44l2.5,2.9h-1.1L95.1,44l2.3-2.5h1.1L96.2,44z"/>
		<path class="st7" d="M100.4,44.2c0-0.8,0.3-1.4,0.8-2c0.6-0.5,1.2-0.8,2-0.8c0.8,0,1.4,0.3,2,0.8c0.6,0.5,0.8,1.2,0.8,2
			c0,0.8-0.3,1.4-0.8,2c-0.6,0.5-1.2,0.8-2,0.8c-0.8,0-1.4-0.3-2-0.8C100.7,45.6,100.4,44.9,100.4,44.2z M105.2,44.1
			c0-0.6-0.2-1-0.6-1.4c-0.4-0.4-0.8-0.6-1.4-0.6c-0.6,0-1,0.2-1.4,0.6c-0.4,0.4-0.5,0.8-0.5,1.4c0,0.6,0.2,1,0.5,1.4
			c0.4,0.4,0.8,0.6,1.4,0.6c0.5,0,1-0.2,1.4-0.6C105,45.2,105.2,44.7,105.2,44.1z"/>
		<path class="st7" d="M109.8,46.8v-4.6H108v-0.8h4.5v0.8h-1.8v4.6H109.8z"/>
		<path class="st7" d="M116.2,46.8v-4.6h-1.8v-0.8h4.5v0.8h-1.8v4.6H116.2z"/>
		<path class="st7" d="M121.3,46.8v-5.4h3.5v0.8h-2.7v1.4h2v0.7h-2v1.7h2.8v0.8H121.3z"/>
		<path class="st7" d="M131.6,46.1h0.7V48h-0.9v-1.1h-3.6V48H127v-1.9h0.4c0.5-0.4,0.8-1.7,0.8-3.8v-0.8h3.5V46.1z M128.3,46.1h2.4
			v-3.8H129C128.9,44.2,128.7,45.4,128.3,46.1z"/>
		<path class="st7" d="M134.5,41.5h1.1l2.1,2.5l-2.3,2.9h-1.1l2.3-2.9L134.5,41.5z M137.7,46.8v-5.4h0.9v5.4H137.7z M139.6,44
			l2.3,2.9h-1.1l-2.3-2.9l2.1-2.5h1.1L139.6,44z"/>
		<path class="st7" d="M144.4,46.8v-5.4h0.9v2.1h2.7v-2.1h0.9v5.4H148v-2.5h-2.7v2.5H144.4z"/>
		<path class="st7" d="M151.8,46.8v-5.4h0.9v2h1.1c0.6,0,1,0.2,1.4,0.5c0.3,0.3,0.5,0.7,0.5,1.2c0,0.5-0.2,0.9-0.5,1.2
			c-0.3,0.3-0.8,0.5-1.4,0.5H151.8z M152.7,46.1h1.1c0.3,0,0.6-0.1,0.7-0.3c0.2-0.2,0.3-0.4,0.3-0.7c0-0.3-0.1-0.5-0.3-0.7
			c-0.2-0.2-0.4-0.3-0.7-0.3h-1.1V46.1z M156.6,46.8v-5.4h0.9v5.4H156.6z"/>
		<path class="st7" d="M164.6,41.4h0.3v5.5h-0.9v-3.7l-3.3,3.8h-0.3v-5.5h0.9v3.7L164.6,41.4z M161.4,39.6v-0.2h0.7v0.2
			c0,0.2,0.1,0.4,0.2,0.5c0.1,0.1,0.3,0.2,0.5,0.2c0.2,0,0.3-0.1,0.5-0.2c0.1-0.1,0.2-0.3,0.2-0.5v-0.2h0.7v0.2c0,0.4-0.1,0.7-0.4,1
			c-0.2,0.2-0.6,0.4-1,0.4c-0.4,0-0.7-0.1-0.9-0.4C161.6,40.3,161.4,40,161.4,39.6z"/>
		<path class="st7" d="M171.8,46.8v-5.4h4.3v5.4h-0.9v-4.6h-2.6v4.6H171.8z"/>
		<path class="st7" d="M178.8,44.2c0-0.8,0.3-1.4,0.8-2c0.6-0.5,1.2-0.8,2-0.8c0.8,0,1.4,0.3,2,0.8c0.6,0.5,0.8,1.2,0.8,2
			c0,0.8-0.3,1.4-0.8,2c-0.6,0.5-1.2,0.8-2,0.8c-0.8,0-1.4-0.3-2-0.8C179,45.6,178.8,44.9,178.8,44.2z M183.5,44.1
			c0-0.6-0.2-1-0.6-1.4c-0.4-0.4-0.8-0.6-1.4-0.6c-0.6,0-1,0.2-1.4,0.6c-0.4,0.4-0.5,0.8-0.5,1.4c0,0.6,0.2,1,0.5,1.4
			c0.4,0.4,0.8,0.6,1.4,0.6c0.5,0,1-0.2,1.4-0.6C183.3,45.2,183.5,44.7,183.5,44.1z"/>
		<path class="st7" d="M186.7,44.2c0-0.8,0.3-1.4,0.8-2c0.6-0.5,1.2-0.8,2-0.8c0.5,0,0.9,0.1,1.3,0.3c0.4,0.2,0.7,0.5,1,0.9
			l-0.7,0.5c-0.4-0.6-0.9-0.9-1.6-0.9c-0.6,0-1,0.2-1.4,0.6c-0.4,0.4-0.6,0.8-0.6,1.4c0,0.6,0.2,1,0.6,1.4c0.4,0.4,0.8,0.6,1.4,0.6
			c0.7,0,1.2-0.3,1.6-0.9l0.7,0.5c-0.2,0.4-0.6,0.7-1,0.9c-0.4,0.2-0.9,0.3-1.3,0.3c-0.8,0-1.4-0.3-2-0.8
			C187,45.6,186.7,44.9,186.7,44.2z"/>
		<path class="st7" d="M194.5,46.8v-5.4h3.5v0.8h-2.7v1.4h2v0.7h-2v1.7h2.8v0.8H194.5z"/>
		<path class="st7" d="M201.4,41.5h3.5v5.4H204v-4.6h-1.8c0,1.2-0.1,2.1-0.2,2.8c-0.1,0.7-0.3,1.1-0.5,1.4c-0.2,0.3-0.5,0.4-0.9,0.4
			c-0.2,0-0.3,0-0.4-0.1v-0.7c0,0,0.1,0,0.2,0c0.4,0,0.6-0.3,0.8-0.9c0.2-0.6,0.2-1.6,0.3-2.9L201.4,41.5z"/>
		<path class="st7" d="M207.5,44.2c0-0.8,0.3-1.4,0.8-2c0.6-0.5,1.2-0.8,2-0.8c0.8,0,1.4,0.3,2,0.8c0.6,0.5,0.8,1.2,0.8,2
			c0,0.8-0.3,1.4-0.8,2c-0.6,0.5-1.2,0.8-2,0.8c-0.8,0-1.4-0.3-2-0.8C207.8,45.6,207.5,44.9,207.5,44.2z M212.3,44.1
			c0-0.6-0.2-1-0.6-1.4c-0.4-0.4-0.8-0.6-1.4-0.6c-0.6,0-1,0.2-1.4,0.6c-0.4,0.4-0.5,0.8-0.5,1.4c0,0.6,0.2,1,0.5,1.4
			c0.4,0.4,0.8,0.6,1.4,0.6c0.5,0,1-0.2,1.4-0.6C212.1,45.2,212.3,44.7,212.3,44.1z"/>
		<path class="st7" d="M215.8,46.8v-5.4h0.9v5.4H215.8z M217.8,44l2.5,2.9h-1.1l-2.5-2.9l2.3-2.5h1.1L217.8,44z"/>
		<path class="st8" d="M35.6,25.1c-8.7,1.8-14.1,4.3-14.1,7.1c0,5.4,20.1,9.8,44.8,9.8c9.1,0,5.8,1-6.1,1c-24.7,0-44.8-4.4-44.8-9.8
			C15.4,29.9,23.5,26.9,35.6,25.1z"/>
		<path class="st8" d="M40.1,27.5c-4.8,0.9-7.8,2.2-7.8,3.7c0,2.8,11.1,5.1,24.7,5.1c5,0,3.2,0.5-3.3,0.5c-13.6,0-24.7-2.3-24.7-5.1
			C29,30,33.4,28.4,40.1,27.5z"/>
		<path class="st8" d="M5.8,29.2v-2.1C2.5,26.5,0,22.2,0,17.1C0,11.5,2.9,0,6.6,0c3.6,0,6.6,11.5,6.6,17.1c0,5.1-2.5,9.5-5.8,10v1.5
			c3.2-1.3,7.3-2.4,12.2-3.4v-1.2c-2-0.4-3.6-3.1-3.6-6.3C15.9,14.2,17.8,7,20,7s4.1,7.2,4.1,10.7c0,3.2-1.6,5.9-3.6,6.3V25
			c3.4-0.7,7.2-1.2,11.2-1.7C16.9,25.7,7.1,29.5,7.1,33.9C7.1,41.1,33.4,47,65.7,47c9.7,0,5.5,1-7.1,1C26.3,48,0,42.1,0,34.9
			C0,32.9,2.1,30.9,5.8,29.2z"/>
	</g>
</g>
</svg>
