<?xml version="1.0" encoding="utf-8"?>
<!-- Generator: Adobe Illustrator 28.0.0, SVG Export Plug-In . SVG Version: 6.00 Build 0)  -->
<svg version="1.1" id="Слой_1" xmlns="http://www.w3.org/2000/svg" xmlns:xlink="http://www.w3.org/1999/xlink" x="0px" y="0px"
	 viewBox="0 0 448 530" style="enable-background:new 0 0 448 530;" xml:space="preserve">
<style type="text/css">
	.st0{display:none;fill:#E9F0D2;}
	.st1{fill:#E9F0D2;}
</style>
<path class="st0" d="M68.3,350.5C2.1,230.6,2.2,184.5,7.4,154.4c3.6-20.5,6.2-35.6,17-40.4c55.9-24.8,226.7,270.5,250,257.6
	c23.1-12.9-156.8-300.4-88.7-364c35.1-32.8,127.2,1.9,179.4,47.9c96.8,85.3,73.5,224.4,67.9,257.6c-15.8,94.3-71.3,168.5-118,191.9
	c-35.8,17.9-68.8,15.9-68.8,15.9s-21-1.2-42.4-10.4C158.6,491,114.8,434.6,68.3,350.5z"/>
<path class="st1" d="M66,347C32.1,262.3-22.9,124.6,43.7,52.5c67.7-73.3,239-54.8,330.1,45.1c78.4,85.9,87.6,221.1,27.5,314.3
	c-39.1,60.7-123.6,128.4-203.7,107.7C127.8,501.6,97.4,425.7,66,347z"/>
</svg>
